<?xml version="1.0" standalone="no"?>
<!DOCTYPE svg PUBLIC "-//W3C//DTD SVG 20010904//EN"
 "http://www.w3.org/TR/2001/REC-SVG-20010904/DTD/svg10.dtd">
<svg version="1.0" xmlns="http://www.w3.org/2000/svg"
 width="458.000000pt" height="458.000000pt" viewBox="0 0 458.000000 458.000000"
 preserveAspectRatio="xMidYMid meet">
<metadata>
Created by potrace 1.14, written by Peter Selinger 2001-2017
</metadata>
<g transform="translate(0.000000,458.000000) scale(0.100000,-0.100000)"
fill="#000000" stroke="none">
<path d="M25 3045 c-24 -23 -25 -28 -25 -170 0 -142 1 -147 25 -170 29 -30 74
-32 106 -6 23 19 24 23 24 174 0 152 -1 156 -24 176 -33 28 -76 27 -106 -4z"/>
<path d="M268 3056 c-48 -36 -41 -114 10 -135 18 -7 192 -10 502 -10 261 0
481 0 488 -1 19 0 18 -1189 -2 -1216 -14 -18 -32 -19 -560 -20 l-546 -2 -1 72
c0 39 0 236 0 438 0 366 0 368 -22 393 -32 36 -71 39 -107 8 l-30 -25 0 -466
c0 -515 -1 -509 63 -556 28 -21 37 -21 655 -21 l627 0 34 24 c63 45 61 24 61
753 0 763 2 737 -78 765 -54 19 -1069 18 -1094 -1z"/>
<path d="M340 2290 l0 -439 320 1 c293 1 324 3 358 20 20 10 46 31 57 46 19
26 20 45 23 420 l3 392 -381 0 -380 0 0 -440z m580 3 l0 -262 -201 2 -202 2 0
251 c0 138 2 255 5 260 4 5 94 9 202 9 l196 0 0 -262z"/>
<path d="M1970 2662 c-14 -2 -33 -15 -44 -28 -17 -24 -18 -49 -18 -340 0 -270
2 -318 16 -338 19 -30 47 -40 91 -32 61 12 64 30 62 382 -2 276 -4 312 -19
327 -22 22 -57 34 -88 29z"/>
<path d="M2343 2659 c-50 -18 -53 -35 -54 -335 0 -153 0 -296 0 -317 2 -77 82
-114 132 -61 24 25 24 29 26 221 1 108 4 197 5 199 2 1 42 -47 88 -108 158
-205 250 -317 269 -328 31 -16 58 -12 88 14 l28 24 1 314 c1 341 -1 357 -54
376 -40 14 -89 -11 -100 -49 -4 -16 -7 -112 -7 -213 0 -129 -3 -180 -10 -172
-6 6 -83 104 -172 217 -166 212 -193 236 -240 218z"/>
<path d="M3959 2640 c-17 -16 -29 -39 -29 -53 0 -22 76 -123 197 -260 21 -24
22 -31 11 -45 -7 -9 -57 -70 -112 -135 -79 -94 -99 -125 -99 -149 0 -36 41
-78 76 -78 33 1 55 23 200 202 l46 57 92 -112 c105 -128 125 -146 157 -147 30
0 82 51 77 76 -2 10 -4 22 -4 26 -1 4 -45 60 -98 125 -54 65 -104 126 -111
134 -13 17 -5 28 152 213 48 57 59 82 51 114 -8 34 -61 63 -93 51 -28 -11 -30
-13 -140 -146 -42 -51 -79 -93 -82 -93 -3 0 -42 44 -86 97 -84 103 -121 143
-132 144 -4 0 -16 2 -26 4 -11 2 -31 -8 -47 -25z"/>
<path d="M3164 2637 l-27 -24 -1 -304 c-1 -302 2 -347 30 -370 18 -15 225 -19
327 -7 198 24 319 169 311 373 -4 102 -24 162 -75 226 -75 94 -180 129 -396
129 -135 0 -143 -1 -169 -23z m371 -143 c82 -40 122 -165 90 -286 -25 -98 -91
-137 -239 -143 l-76 -3 -1 112 c-1 123 -1 190 0 285 l1 63 93 -4 c63 -3 104
-11 132 -24z"/>
</g>
</svg>
